#!OML:ASF I:\Actors\actors\Patient Classification 2\Patient 1\Session 1\actor1.ASF
:FULLY-SPECIFIED
:DEGREES
787
root -1.07516 18.1411 5.78616 -1.15756 0.287522 -4.28852
lowerback 3.33785 0.922082 2.54174
upperback 0.389637 1.34641 1.54387
thorax -1.44976 0.661664 0.0980613
lowerneck -11.5766 -2.24163 -1.47141
upperneck 35.3027 -3.44536 1.43619
head 14.004 -1.49134 0.322081
rclavicle 1.97792e-014 1.24675e-014
rhumerus -45.4732 36.6921 -83.1782
rradius 100.005
rwrist 42.6344
rhand -40.4594 -7.44873
rfingers 7.12502
rthumb -13.4106 -36.9971
lclavicle 1.97792e-014 1.24675e-014
lhumerus -34.1009 -19.8107 94.6668
lradius 96.229
lwrist 69.2943
lhand -16.7278 3.63466
lfingers 7.12502
lthumb 9.49797 33.4006
rfemur 0 0 0
rtibia 0
rfoot 0 0
rtoes 0
lfemur 18.6042 -7.01098 -12.2857
ltibia -18.3652
lfoot -2.48645 18.1689
ltoes -11.7393
788
root -1.07201 18.1394 5.78375 -1.20034 0.143588 -4.28567
lowerback 3.43866 0.956697 2.54615
upperback 0.376843 1.39691 1.54461
thorax -1.51846 0.686091 0.0920804
lowerneck -11.5349 -2.25057 -1.38251
upperneck 35.2935 -3.46965 1.39618
head 13.988 -1.49604 0.287123
rclavicle 6.0739e-015 1.45734e-014
rhumerus -45.8345 36.3342 -83.7609
rradius 99.0201
rwrist 42.8794
rhand -40.7333 -7.83732
rfingers 7.12502
rthumb -13.6746 -37.3681
lclavicle 6.0739e-015 1.45734e-014
lhumerus -34.1394 -19.8262 94.7113
lradius 96.217
lwrist 69.3471
lhand -16.6857 3.72714
lfingers 7.12502
lthumb 9.53858 33.4912
rfemur 0 0 0
rtibia 0
rfoot 0 0
rtoes 0
lfemur 18.6771 -7.01218 -12.3218
ltibia -18.3413
lfoot -2.54435 18.2888
ltoes -11.632
789
root -1.07119 18.1367 5.78115 -1.24455 -0.126022 -4.2877
lowerback 3.53698 1.01927 2.52808
upperback 0.372196 1.4836 1.55259
thorax -1.57754 0.72887 0.10438
lowerneck -11.4935 -2.24006 -1.3473
upperneck 35.2941 -3.49183 1.4701
head 13.9804 -1.49182 0.307819
rclavicle 1.80255e-015 2.01642e-014
rhumerus -46.1718 35.9985 -84.3517
rradius 98.2073
rwrist 43.1925
rhand -40.8442 -8.12158
rfingers 7.12502
rthumb -13.7815 -37.6451
lclavicle 1.80255e-015 2.01642e-014
lhumerus -34.1784 -19.7922 94.7313
lradius 96.2143
lwrist 69.3454
lhand -16.5896 3.76605
lfingers 7.12502
lthumb 9.63136 33.5259
rfemur 0 0 0
rtibia 0
rfoot 0 0
rtoes 0
lfemur 18.78 -6.99198 -12.3584
ltibia -18.3193
lfoot -2.69623 18.4964
ltoes -11.3731
790
root -1.06938 18.1376 5.77999 -1.21474 -0.278665 -4.2934
lowerback 3.53198 1.04411 2.5236
upperback 0.360286 1.51699 1.57264
thorax -1.58709 0.745458 0.125835
lowerneck -11.4896 -2.23686 -1.33655
upperneck 35.287 -3.51911 1.54728
head 13.9786 -1.49235 0.332866
rclavicle -1.81144e-014 -2.02151e-014
rhumerus -46.3674 35.7557 -84.8149
rradius 97.5296
rwrist 43.4086
rhand -40.7615 -8.22479
rfingers 7.12502
rthumb -13.7018 -37.7537
lclavicle -1.81144e-014 -2.02151e-014
lhumerus -34.1436 -19.7075 94.7707
lradius 96.1959
lwrist 69.3374
lhand -16.5122 3.76628
lfingers 7.12502
lthumb 9.70602 33.5226
rfemur 0 0 0
rtibia 0
rfoot 0 0
rtoes 0
lfemur 18.7826 -7.0014 -12.3771
ltibia -18.307
lfoot -2.77888 18.6515
ltoes -11.3303
791
root -1.06718 18.1396 5.77884 -1.16828 -0.383306 -4.2906
lowerback 3.50346 1.06412 2.50925
upperback 0.345544 1.54274 1.5901
thorax -1.58671 0.758376 0.150978
lowerneck -11.4974 -2.2605 -1.39531
upperneck 35.2664 -3.58856 1.68459
head 13.9774 -1.51235 0.38785
rclavicle -3.30549e-014 -1.43746e-014
rhumerus -46.4474 35.5884 -85.1303
rradius 96.9887
rwrist 43.4844
rhand -40.7529 -8.33564
rfingers 7.12502
rthumb -13.6934 -37.8651
lclavicle -3.30549e-014 -1.43746e-014
lhumerus -34.0979 -19.6284 94.815
lradius 96.1852
lwrist 69.414
lhand -16.4745 3.82915
lfingers 7.12502
lthumb 9.7424 33.5838
rfemur 0 0 0
rtibia 0
rfoot 0 0
rtoes 0
lfemur 18.7554 -7.00899 -12.3993
ltibia -18.2977
lfoot -2.80106 18.7798
ltoes -11.4783
792
root -1.0651 18.1414 5.77683 -1.12492 -0.478707 -4.33563
lowerback 3.47855 1.08609 2.53695
upperback 0.330208 1.57289 1.60939
thorax -1.58785 0.773204 0.15421
lowerneck -11.5124 -2.28795 -1.4082
upperneck 35.2586 -3.66908 1.80167
head 13.9825 -1.53355 0.424829
rclavicle 2.89513e-014 1.87789e-014
rhumerus -46.4477 35.446 -85.3671
rradius 96.5582
rwrist 43.5492
rhand -40.8022 -8.52645
rfingers 7.12502
rthumb -13.741 -38.0527
lclavicle 2.89513e-014 1.87789e-014
lhumerus -34.0779 -19.5995 94.826
lradius 96.1722
lwrist 69.5341
lhand -16.4492 3.89427
lfingers 7.12502
lthumb 9.76676 33.6478
rfemur 0 0 0
rtibia 0
rfoot 0 0
rtoes 0
lfemur 18.721 -6.94881 -12.3533
ltibia -18.2832
lfoot -2.81432 18.8179
ltoes -11.6141
793
root -1.06212 18.1434 5.77493 -1.06715 -0.468477 -4.3906
lowerback 3.43403 1.06185 2.58459
upperback 0.299298 1.54203 1.63424
thorax -1.59457 0.757316 0.155081
lowerneck -11.5233 -2.29722 -1.38754
upperneck 35.2769 -3.70968 1.85478
head 13.9952 -1.54138 0.43623
rclavicle -1.49551e-014 -1.00883e-014
rhumerus -46.366 35.3449 -85.5707
rradius 96.2059
rwrist 43.5709
rhand -40.6907 -8.77455
rfingers 7.12502
rthumb -13.6335 -38.3081
lclavicle -1.49551e-014 -1.00883e-014
lhumerus -34.0694 -19.562 94.8274
lradius 96.1274
lwrist 69.6209
lhand -16.4158 3.90063
lfingers 7.12502
lthumb 9.79896 33.6526
rfemur 0 0 0
rtibia 0
rfoot 0 0
rtoes 0
lfemur 18.6389 -6.9691 -12.2917
ltibia -18.2658
lfoot -2.83661 18.8436
ltoes -11.417
794
root -1.06083 18.1434 5.7715 -1.07026 -0.579888 -4.36596
lowerback 3.47183 1.06481 2.52453
upperback 0.270567 1.54611 1.64216
thorax -1.64699 0.759128 0.195441
lowerneck -11.5178 -2.30394 -1.40088
upperneck 35.3002 -3.73705 1.90534
head 14.0069 -1.54867 0.454779
rclavicle -1.45317e-014 -1.59525e-014
rhumerus -46.3044 35.283 -85.7675
rradius 95.9966
rwrist 43.4783
rhand -40.6154 -9.104
rfingers 7.12502
rthumb -13.561 -38.6424
lclavicle -1.45317e-014 -1.59525e-014
lhumerus -34.0546 -19.4907 94.8207
lradius 96.0591
lwrist 69.6875
lhand -16.4344 3.83188
lfingers 7.12502
lthumb 9.78108 33.5847
rfemur 0 0 0
rtibia 0
rfoot 0 0
rtoes 0
lfemur 18.6491 -7.02623 -12.3454
ltibia -18.2479
lfoot -2.92481 19.0175
ltoes -11.1842
795
root -1.06001 18.1422 5.76752 -1.1163 -0.76559 -4.33817
lowerback 3.54417 1.08665 2.44921
upperback 0.263964 1.57527 1.64544
thorax -1.69599 0.773735 0.237902
lowerneck -11.5078 -2.31594 -1.40562
upperneck 35.2732 -3.77235 1.95335
head 13.9947 -1.55926 0.469539
rclavicle 2.73989e-015 5.37961e-015
rhumerus -46.2215 35.2327 -85.8821
rradius 95.9632
rwrist 43.2017
rhand -40.5879 -9.20866
rfingers 7.12502
rthumb -13.5345 -38.7488
lclavicle 2.73989e-015 5.37961e-015
lhumerus -33.9922 -19.3846 94.792
lradius 95.9934
lwrist 69.7595
lhand -16.4896 3.78022
lfingers 7.12502
lthumb 9.72783 33.5356
rfemur 0 0 0
rtibia 0
rfoot 0 0
rtoes 0
lfemur 18.7208 -6.98824 -12.4054
ltibia -18.2175
lfoot -2.99306 19.1303
ltoes -11.2466
